<?xml version="1.0" encoding="UTF-8" standalone="no"?>
<svg
   width="1920"
   height="1080"
   viewBox="0 0 507.99999 285.75001"
   version="1.1"
   id="svg1032"
   inkscape:version="1.2.1 (9c6d41e410, 2022-07-14)"
   sodipodi:docname="yin-yang dynamic.svg"
   xmlns:inkscape="http://www.inkscape.org/namespaces/inkscape"
   xmlns:sodipodi="http://sodipodi.sourceforge.net/DTD/sodipodi-0.dtd"
   xmlns:xlink="http://www.w3.org/1999/xlink"
   xmlns="http://www.w3.org/2000/svg"
   xmlns:svg="http://www.w3.org/2000/svg"
   xmlns:rdf="http://www.w3.org/1999/02/22-rdf-syntax-ns#"
   xmlns:cc="http://creativecommons.org/ns#"
   xmlns:dc="http://purl.org/dc/elements/1.1/">
   <style>
      #rect1871 {
         fill: url(#radialGradient857);
         transition: all 1s;
      }

      #bw stop:nth-child(1) {
         stop-color: black;
      }

      #bw stop:nth-child(2) {
         stop-color: white;
      }

      @media (prefers-color-scheme: dark) {
         #rect1871 {
            fill: url(#radialGradient857);
         }

         #bw stop:nth-child(1) {
         stop-color: black;
         }

         #bw stop:nth-child(2) {
         stop-color: white;
         }
      }

      @media (prefers-color-scheme: light) {
         #rect1871 {
            fill: url(#radialGradient1729);
         }

         #bw stop:nth-child(2) {
         stop-color: black;
         }

         #bw stop:nth-child(1) {
         stop-color: white;
         }
      }
   </style>
  <defs
     id="defs1026">
    <linearGradient
       inkscape:collect="always"
       id="bg-dark">
      <stop
         style="stop-color:#333333;stop-opacity:1"
         offset="0"
         id="stop851" />
      <stop
         style="stop-color:#333333;stop-opacity:1"
         offset="0.65142864"
         id="stop1209" />
      <stop
         style="stop-color:#404040;stop-opacity:1"
         offset="1"
         id="stop853" />
    </linearGradient>
    <linearGradient
       inkscape:collect="always"
       id="bg-light">
       <stop
          style="stop-color:#cccccc;stop-opacity:1"
          offset="0"
          id="stop1723" />
       <stop
          style="stop-color:#cccccc;stop-opacity:1;"
          offset="0.65142852"
          id="stop2273" />
       <stop
          style="stop-color:#bfbfbf;stop-opacity:1"
          offset="1"
          id="stop1725" />
       </linearGradient>
      <radialGradient
         inkscape:collect="always"
         xlink:href="#bg-light"
         id="radialGradient1729"
         cx="254"
         cy="153.45831"
         fx="254"
         fy="153.45831"
         r="264.58334"
         gradientTransform="matrix(0.95999999,0,0,0.53999994,10.160011,60.007509)"
         gradientUnits="userSpaceOnUse" />
    <rect
       x="133.10023"
       y="26.726954"
       width="264.59683"
       height="200.98669"
       id="rect2170" />
    <linearGradient
       inkscape:collect="always"
       xlink:href="#bw"
       id="linearGradient2196"
       gradientUnits="userSpaceOnUse"
       gradientTransform="translate(138.83344,34.59466)"
       x1="303.45212"
       y1="170.59305"
       x2="268.17474"
       y2="144.1308" />
    <linearGradient
       inkscape:collect="always"
       id="bw">
      <stop
         style="stop-opacity:1"
         offset="0"
         id="stop2034" />
      <stop
         style="stop-opacity:1"
         offset="1"
         id="stop2036" />
    </linearGradient>
    <linearGradient
       inkscape:collect="always"
       xlink:href="#bw"
       id="linearGradient2198"
       gradientUnits="userSpaceOnUse"
       gradientTransform="translate(138.83344,34.59466)"
       x1="303.45212"
       y1="152.95416"
       x2="276.98987"
       y2="188.23154" />
    <linearGradient
       inkscape:collect="always"
       xlink:href="#bw"
       id="linearGradient2200"
       gradientUnits="userSpaceOnUse"
       gradientTransform="translate(138.83344,34.59466)"
       x1="285.81323"
       y1="152.95416"
       x2="321.09015"
       y2="179.41196" />
    <linearGradient
       inkscape:collect="always"
       xlink:href="#bw"
       id="linearGradient2309"
       gradientUnits="userSpaceOnUse"
       gradientTransform="translate(138.83344,34.59466)"
       x1="285.8132"
       y1="170.593"
       x2="312.27103"
       y2="135.31609" />
    <radialGradient
       inkscape:collect="always"
       xlink:href="#bg-dark"
       id="radialGradient857"
       cx="264.58334"
       cy="132.29167"
       fx="264.58334"
       fy="132.29167"
       r="264.58334"
       gradientTransform="matrix(0.92000004,0,0,0.5,560.91667,66.145836)"
       gradientUnits="userSpaceOnUse" />
  </defs>
  <sodipodi:namedview
     id="base"
     pagecolor="#ffffff"
     bordercolor="#666666"
     borderopacity="1.0"
     inkscape:pageopacity="1"
     inkscape:pageshadow="2"
     inkscape:zoom="0.24748737"
     inkscape:cx="319.20821"
     inkscape:cy="595.99001"
     inkscape:document-units="px"
     inkscape:current-layer="g2293"
     inkscape:document-rotation="0"
     showgrid="false"
     units="px"
     inkscape:pagecheckerboard="false"
     inkscape:snap-bbox="true"
     inkscape:bbox-nodes="true"
     inkscape:snap-page="true"
     inkscape:window-width="1920"
     inkscape:window-height="1021"
     inkscape:window-x="0"
     inkscape:window-y="603"
     inkscape:window-maximized="1"
     showguides="false"
     inkscape:guide-bbox="true"
     inkscape:snap-nodes="true"
     inkscape:snap-bbox-midpoints="true"
     inkscape:showpageshadow="2"
     inkscape:deskcolor="#d1d1d1">
    <inkscape:grid
       type="xygrid"
       id="grid1865"
       originx="-539.75"
       originy="0" />
    <sodipodi:guide
       position="-539.75001,285.75001"
       orientation="0.4472136,0.89442719"
       id="guide1867"
       inkscape:locked="false" />
    <sodipodi:guide
       position="-10.583355,285.75001"
       orientation="0.44721361,-0.89442718"
       id="guide1869"
       inkscape:locked="false" />
    <sodipodi:guide
       position="-102.80953,125.4881"
       orientation="1,0"
       id="guide2753"
       inkscape:locked="false" />
    <sodipodi:guide
       position="-275.16668,153.45834"
       orientation="0,-1"
       id="guide3501"
       inkscape:locked="false" />
  </sodipodi:namedview>
  <metadata
     id="metadata1029">
    <rdf:RDF>
      <cc:Work
         rdf:about="">
        <dc:format>image/svg+xml</dc:format>
        <dc:type
           rdf:resource="http://purl.org/dc/dcmitype/StillImage" />
        <dc:title />
      </cc:Work>
    </rdf:RDF>
  </metadata>
  <g
     inkscape:label="Ebene 1"
     inkscape:groupmode="layer"
     id="layer1"
     transform="translate(-539.75001)">
    <rect
       style="fill-opacity:1;stroke-width:0.705556"
       id="rect1871"
       width="508.00003"
       height="285.75"
       x="539.75"
       y="0" />
    <g
       id="g2293"
       transform="matrix(3.8837798,0,0,3.8837798,-889.73599,-619.77692)">
      <path
         id="path833-3-6-5-6-2-9-9-3-5-5-9"
         style="fill:url(#linearGradient2196);fill-opacity:1;stroke:none;stroke-width:0.455721"
         d="m 442.28533,196.23355 c 0.0378,-7.1888 -4.80663,-14.06851 -11.59826,-16.43827 -6.81693,-2.5927 -15.08299,-0.34357 -19.6453,5.34696 -2.51069,3.02656 -3.94634,6.91047 -4.02508,10.84068 -7e-5,0.003 -4.6e-4,0.007 -5.2e-4,0.01 a 8.8194445,8.8194445 0 0 0 -0.008,0.37517 8.8194445,8.8194445 0 0 0 8.81909,8.81962 8.8194445,8.8194445 0 0 0 8.81962,-8.81962 h 5.2e-4 a 8.8194442,8.8194442 0 0 1 8.81961,-8.81961 8.8194442,8.8194442 0 0 1 8.81807,8.68525 z" />
      <path
         id="path833-3-6-5-6-2-9-9-3-1-4-4-2"
         style="fill:url(#linearGradient2198);fill-opacity:1;stroke:none;stroke-width:0.455721"
         d="m 433.33139,187.54904 c -7.1888,-0.0378 -14.06851,4.80663 -16.43827,11.59826 -2.5927,6.81693 -0.34357,15.08299 5.34696,19.6453 3.02656,2.51069 6.91047,3.94634 10.84068,4.02508 0.003,7e-5 0.007,4.6e-4 0.01,5.2e-4 a 8.8194445,8.8194445 0 0 0 0.37517,0.008 8.8194445,8.8194445 0 0 0 8.81962,-8.81909 8.8194445,8.8194445 0 0 0 -8.81962,-8.81962 v -5.2e-4 a 8.8194442,8.8194442 0 0 1 -8.81961,-8.81961 8.8194442,8.8194442 0 0 1 8.68525,-8.81807 z" />
      <path
         id="path833-3-7-5-1-5-8-7-7-7-0"
         style="fill:url(#linearGradient2200);fill-opacity:1;stroke:none;stroke-width:0.455721"
         d="m 459.92358,196.36792 h -5.2e-4 a 8.8194445,8.8194445 0 0 0 -8.81909,-8.8191 8.8194445,8.8194445 0 0 0 -8.81963,8.8191 8.8194445,8.8194445 0 0 0 0,0.0403 8.8194442,8.8194442 0 0 1 -8.81908,8.7793 8.8194442,8.8194442 0 0 1 -8.8186,-8.70334 17.638889,17.638889 0 0 0 17.63821,17.52244 17.638889,17.638889 0 0 0 17.63872,-17.63871 z" />
      <path
         id="path833-3-7-5-1-5-8-7-6-4-0-6-4-6"
         style="fill:url(#linearGradient2309);fill-opacity:1;stroke:none;stroke-width:0.455721"
         d="m 433.46575,169.91078 v 5.2e-4 a 8.8194442,8.8194442 0 0 0 -8.81911,8.81599 c 2.05168,-0.0126 4.10451,0.33185 6.04046,1.06816 6.79163,2.36976 11.63606,9.24947 11.59826,16.43827 h -5.2e-4 a 8.819444,8.819444 0 0 0 -8.81806,-8.68526 8.819444,8.819444 0 0 0 -0.10904,0.001 8.8194442,8.8194442 0 0 0 0.10801,5.2e-4 8.8194442,8.8194442 0 0 0 0.0403,0 8.819444,8.819444 0 0 1 8.77931,8.8191 8.819444,8.819444 0 0 1 -8.70334,8.81858 17.638889,17.638889 0 0 0 17.52244,-17.6382 17.638889,17.638889 0 0 0 -17.63871,-17.63871 z" />
    </g>
  </g>
</svg>
