<?xml version="1.0" encoding="UTF-8"?>
<svg width="1920" height="1080" version="1.1" viewBox="0 0 508 285.75" xmlns="http://www.w3.org/2000/svg" xmlns:xlink="http://www.w3.org/1999/xlink">
    <style>
        #bw stop[offset="1"] {
            stop-color: #fff;
        }

        #bw stop[offset="0"] {
            stop-color: #000;
        }

        rect {
            fill: url(#radialGradient1729);
        }

        @media (prefers-color-scheme: light) {
            #bw stop[offset="1"] {
                stop-color: #fff;
            }

            #bw stop[offset="0"] {
                stop-color: #000;
            }

            rect {
                fill: url(#radialGradient1729);
            }
        }

        @media (prefers-color-scheme: dark) {
            #bw stop[offset="0"] {
                stop-color: #fff;
            }

            #bw stop[offset="1"] {
                stop-color: #000;
            }

            rect {
                fill: url(#radialGradient857);
            }
        }
    </style>

    <defs>
        <linearGradient id="linearGradient2196" x1="303.45" x2="268.17" y1="170.59" y2="144.13" gradientTransform="translate(138.83 34.595)" gradientUnits="userSpaceOnUse" xlink:href="#bw"/>
        <linearGradient id="bw">
            <stop offset="0"/>
            <stop offset="1"/>
        </linearGradient>
        <linearGradient id="linearGradient2198" x1="303.45" x2="276.99" y1="152.95" y2="188.23" gradientTransform="translate(138.83 34.595)" gradientUnits="userSpaceOnUse" xlink:href="#bw"/>
        <linearGradient id="linearGradient2200" x1="285.81" x2="321.09" y1="152.95" y2="179.41" gradientTransform="translate(138.83 34.595)" gradientUnits="userSpaceOnUse" xlink:href="#bw"/>
        <linearGradient id="linearGradient2309" x1="285.81" x2="312.27" y1="170.59" y2="135.32" gradientTransform="translate(138.83 34.595)" gradientUnits="userSpaceOnUse" xlink:href="#bw"/>
        <linearGradient id="linearGradient2115" x1="268.17" x2="303.45" y1="144.13" y2="170.59" gradientTransform="translate(129.41 -40.572)" gradientUnits="userSpaceOnUse" xlink:href="#bw"/>
        <linearGradient id="linearGradient2117" x1="276.99" x2="303.45" y1="188.23" y2="152.95" gradientTransform="translate(129.41 -40.572)" gradientUnits="userSpaceOnUse" xlink:href="#bw"/>
        <linearGradient id="linearGradient2119" x1="321.09" x2="285.81" y1="179.41" y2="152.95" gradientTransform="translate(129.41 -40.572)" gradientUnits="userSpaceOnUse" xlink:href="#bw"/>
        <linearGradient id="linearGradient2311" x1="312.27" x2="285.81" y1="135.32" y2="170.59" gradientTransform="translate(129.41 -40.572)" gradientUnits="userSpaceOnUse" xlink:href="#bw"/>
        <radialGradient id="radialGradient857" cx="264.58" cy="132.29" r="264.58" gradientTransform="matrix(.92 0 0 .5 560.92 66.146)" gradientUnits="userSpaceOnUse">
            <stop style="stop-color:#333" offset="0"/>
            <stop style="stop-color:#333" offset=".65143"/>
            <stop style="stop-color:#404040" offset="1"/>
        </radialGradient>
        <radialGradient id="radialGradient1729" cx="254" cy="153.46" r="264.58" gradientTransform="matrix(.96 0 0 .54 10.16 60.008)" gradientUnits="userSpaceOnUse">
            <stop style="stop-color:#ccc" offset="0"/>
            <stop style="stop-color:#ccc" offset=".65143"/>
            <stop style="stop-color:#bfbfbf" offset="1"/>
        </radialGradient>
    </defs>
    <rect x="-1.7012e-5" y="-8.5059e-6" width="508" height="285.75"/>
    <g transform="matrix(3.8838 0 0 3.8838 -1392.9 -327.84)">
        <path d="m432.86 121.07c0.0378-7.1888-4.8066-14.069-11.598-16.438-6.8169-2.5927-15.083-0.34357-19.645 5.347-2.5107 3.0266-3.9463 6.9105-4.0251 10.841-7e-5 3e-3 -4.6e-4 7e-3 -5.2e-4 0.01a8.8194 8.8194 0 0 0-8e-3 0.37517 8.8194 8.8194 0 0 0 8.8191 8.8196 8.8194 8.8194 0 0 0 8.8196-8.8196h5.2e-4a8.8194 8.8194 0 0 1 8.8196-8.8196 8.8194 8.8194 0 0 1 8.8181 8.6852z" style="fill:url(#linearGradient2115)"/>
        <path d="m423.91 112.38c-7.1888-0.0378-14.069 4.8066-16.438 11.598-2.5927 6.8169-0.34357 15.083 5.347 19.645 3.0266 2.5107 6.9105 3.9463 10.841 4.0251 3e-3 7e-5 7e-3 4.6e-4 0.01 5.2e-4a8.8194 8.8194 0 0 0 0.37517 8e-3 8.8194 8.8194 0 0 0 8.8196-8.8191 8.8194 8.8194 0 0 0-8.8196-8.8196v-5.2e-4a8.8194 8.8194 0 0 1-8.8196-8.8196 8.8194 8.8194 0 0 1 8.6852-8.8181z" style="fill:url(#linearGradient2117)"/>
        <path d="m450.5 121.2h-5.2e-4a8.8194 8.8194 0 0 0-8.8191-8.8191 8.8194 8.8194 0 0 0-8.8196 8.8191 8.8194 8.8194 0 0 0 0 0.0403 8.8194 8.8194 0 0 1-8.8191 8.7793 8.8194 8.8194 0 0 1-8.8186-8.7033 17.639 17.639 0 0 0 17.638 17.522 17.639 17.639 0 0 0 17.639-17.639z" style="fill:url(#linearGradient2119)"/>
        <path d="m424.04 94.744v5.2e-4a8.8194 8.8194 0 0 0-8.8191 8.816c2.0517-0.0126 4.1045 0.33185 6.0405 1.0682 6.7916 2.3698 11.636 9.2495 11.598 16.438h-5.2e-4a8.8194 8.8194 0 0 0-8.8181-8.6853 8.8194 8.8194 0 0 0-0.10904 1e-3 8.8194 8.8194 0 0 0 0.10801 5.2e-4 8.8194 8.8194 0 0 0 0.0403 0 8.8194 8.8194 0 0 1 8.7793 8.8191 8.8194 8.8194 0 0 1-8.7033 8.8186 17.639 17.639 0 0 0 17.522-17.638 17.639 17.639 0 0 0-17.639-17.639z" style="fill:url(#linearGradient2311)"/>
    </g>
</svg>
